<svg width="30" height="30" viewBox="0 0 30 30" fill="none" xmlns="http://www.w3.org/2000/svg">
<path d="M18.75 16.7188C18.75 17.4604 18.5301 18.1855 18.118 18.8021C17.706 19.4188 17.1203 19.8995 16.4351 20.1833C15.7498 20.4671 14.9958 20.5414 14.2684 20.3967C13.541 20.252 12.8728 19.8948 12.3483 19.3704C11.8239 18.846 11.4667 18.1778 11.3221 17.4503C11.1774 16.7229 11.2516 15.9689 11.5355 15.2837C11.8193 14.5985 12.2999 14.0128 12.9166 13.6007C13.5333 13.1887 14.2583 12.9688 15 12.9688C15.9936 12.9718 16.9456 13.3679 17.6482 14.0705C18.3508 14.7731 18.7469 15.7251 18.75 16.7188ZM26.7188 11.5625V21.875C26.7188 23.6155 26.0273 25.2847 24.7966 26.5154C23.5659 27.7461 21.8967 28.4375 20.1562 28.4375H9.84375C8.10327 28.4375 6.43407 27.7461 5.20336 26.5154C3.97265 25.2847 3.28125 23.6155 3.28125 21.875V11.5625C3.28125 9.82202 3.97265 8.15282 5.20336 6.92211C6.43407 5.6914 8.10327 5 9.84375 5H20.1562C21.8967 5 23.5659 5.6914 24.7966 6.92211C26.0273 8.15282 26.7188 9.82202 26.7188 11.5625ZM20.625 16.7188C20.625 15.6062 20.2951 14.5187 19.677 13.5937C19.0589 12.6686 18.1804 11.9477 17.1526 11.5219C16.1248 11.0962 14.9938 10.9848 13.9026 11.2018C12.8115 11.4189 11.8092 11.9546 11.0225 12.7413C10.2359 13.5279 9.70013 14.5302 9.48308 15.6214C9.26604 16.7125 9.37744 17.8435 9.80318 18.8713C10.2289 19.8992 10.9499 20.7777 11.8749 21.3958C12.7999 22.0138 13.8875 22.3438 15 22.3438C16.4918 22.3438 17.9226 21.7511 18.9775 20.6962C20.0324 19.6413 20.625 18.2106 20.625 16.7188ZM22.5 10.625C22.5 10.3469 22.4175 10.075 22.263 9.84373C22.1085 9.61247 21.8889 9.43223 21.6319 9.32579C21.3749 9.21936 21.0922 9.19151 20.8194 9.24577C20.5466 9.30003 20.296 9.43396 20.0994 9.63063C19.9027 9.8273 19.7688 10.0779 19.7145 10.3507C19.6603 10.6234 19.6881 10.9062 19.7945 11.1631C19.901 11.4201 20.0812 11.6397 20.3125 11.7943C20.5437 11.9488 20.8156 12.0312 21.0938 12.0312C21.4667 12.0312 21.8244 11.8831 22.0881 11.6194C22.3518 11.3556 22.5 10.998 22.5 10.625Z" fill="white"/>
</svg>
