<svg width="54" height="54" viewBox="0 0 54 54" fill="none" xmlns="http://www.w3.org/2000/svg">
<path d="M26.7642 15.12C26.7578 15.12 26.7518 15.1217 26.7454 15.1219C26.7391 15.1216 26.7331 15.12 26.7267 15.12C15.979 15.12 7.55988 18.6183 7.55988 23.0841V28.7332C7.55988 28.802 7.57715 28.8662 7.60554 28.9241C7.73961 31.217 10.2812 33.369 14.4776 34.8507V36.3778C14.4776 37.1403 15.0719 37.809 15.8326 37.9005C19.2833 38.3006 22.7583 38.5006 26.2334 38.5006C29.7086 38.5006 33.1837 38.3006 36.6343 37.9005C36.635 37.9004 36.6355 37.9004 36.6362 37.9002C37.3949 37.809 37.9893 37.1403 37.9894 36.3778V35.1886C42.7937 33.7077 45.7411 31.3977 45.8855 28.9238C45.9137 28.8659 45.9309 28.8018 45.9309 28.7332V23.0841C45.9308 18.6183 37.5119 15.12 26.7642 15.12ZM8.48359 28.7332C8.48359 28.6703 8.46981 28.6108 8.44586 28.5568V25.5383C9.53933 26.9964 11.613 28.2753 14.4775 29.2443V33.907C10.7907 32.5338 8.48359 30.6051 8.48359 28.7332ZM26.7267 21.6482C26.7331 21.6482 26.7391 21.6465 26.7454 21.6463C26.7518 21.6466 26.7578 21.6482 26.7642 21.6482C33.9934 21.6482 40.4816 23.3092 43.4639 25.8998C42.2428 26.9599 40.3618 27.9117 37.9893 28.6441V28.4249V26.7455C37.9893 25.983 37.3949 25.314 36.6341 25.2226C29.733 24.4225 22.7341 24.4225 15.8306 25.2228C15.0717 25.3141 14.4775 25.983 14.4775 26.7455V28.304C12.5849 27.6271 11.0673 26.8029 10.0274 25.9004C12.9812 23.3436 19.5818 21.6482 26.7267 21.6482ZM36.53 37.0274C29.6969 37.8195 22.7683 37.8196 15.9372 37.0276C15.6316 36.9909 15.3636 36.6871 15.3636 36.3777V34.6984V28.4249C15.3636 28.1155 15.6317 27.8118 15.9353 27.7752C19.3525 27.3791 22.793 27.181 26.2338 27.181C29.6739 27.181 33.1141 27.3791 36.5295 27.7749C36.8351 27.8118 37.1033 28.1155 37.1033 28.4249V34.6982V36.3777C37.1031 36.6923 36.8406 36.9898 36.53 37.0274ZM37.1033 27.0407C36.9576 26.9708 36.8002 26.9219 36.6342 26.902C29.7331 26.1022 22.7342 26.1019 15.8306 26.9023C15.6654 26.9222 15.5087 26.9708 15.3635 27.0404V26.7455C15.3635 26.4361 15.6316 26.1324 15.9353 26.0958C19.3524 25.6996 22.793 25.5016 26.2337 25.5016C29.6739 25.5016 33.1141 25.6996 36.5294 26.0955C36.8351 26.1324 37.1033 26.4361 37.1033 26.7455V27.0407H37.1033ZM45.0448 28.5571C45.021 28.6111 45.0072 28.6705 45.0072 28.7332C45.0072 30.7728 42.2677 32.8793 37.9893 34.2617V29.5674C41.3859 28.5685 43.8251 27.1648 45.0447 25.5383V28.5571H45.0448ZM44.0926 25.2788C40.9668 22.5319 34.227 20.769 26.7642 20.769C26.7578 20.769 26.7518 20.7707 26.7454 20.771C26.7391 20.7707 26.7331 20.769 26.7267 20.769C19.2354 20.769 12.5252 22.528 9.39806 25.2785C8.7798 24.5728 8.44596 23.8316 8.44596 23.0841C8.44596 19.2436 16.8175 15.9991 26.7268 15.9991C26.7332 15.9991 26.7392 15.9975 26.7455 15.9972C26.7519 15.9975 26.7579 15.9991 26.7643 15.9991C36.6733 15.9991 45.0449 19.2436 45.0449 23.0841C45.0448 23.8317 44.7109 24.573 44.0926 25.2788Z" fill="white"/>
<path d="M35.2255 29.6243C35.3134 29.6243 35.4023 29.5984 35.4797 29.5445C35.7922 29.3268 36.1028 29.1163 36.4032 28.9188C36.6072 28.7847 36.663 28.5119 36.5279 28.3096C36.3925 28.1069 36.1176 28.0521 35.9138 28.186C35.6068 28.3879 35.2895 28.6029 34.9705 28.825C34.7703 28.9645 34.7219 29.2387 34.8625 29.4373C34.9487 29.5593 35.086 29.6243 35.2255 29.6243Z" fill="white"/>
<path d="M36.4032 35.884C36.1028 35.6866 35.7921 35.4761 35.4796 35.2584C35.2792 35.1189 35.0031 35.1668 34.8625 35.3655C34.7219 35.5641 34.7703 35.8383 34.9706 35.9777C35.2895 36.1999 35.6068 36.4148 35.9138 36.6167C35.9891 36.6662 36.0741 36.6899 36.1582 36.6899C36.3016 36.6899 36.4425 36.6209 36.5278 36.4931C36.6629 36.2909 36.6072 36.0181 36.4032 35.884Z" fill="white"/>
<path d="M16.0633 28.9188C16.3648 29.1169 16.6754 29.3274 16.9866 29.5445C17.0641 29.5984 17.1529 29.6243 17.2409 29.6243C17.3803 29.6243 17.5177 29.5593 17.6038 29.4375C17.7445 29.2389 17.6961 28.9646 17.496 28.825C17.1781 28.6036 16.8607 28.3886 16.5527 28.186C16.349 28.0521 16.074 28.1068 15.9387 28.3096C15.8036 28.5119 15.8593 28.7847 16.0633 28.9188Z" fill="white"/>
<path d="M17.496 35.9777C17.696 35.8381 17.7445 35.5639 17.6038 35.3652C17.4632 35.1666 17.1868 35.1192 16.9866 35.2583C16.6754 35.4753 16.3648 35.6857 16.0633 35.8839C15.8593 36.018 15.8036 36.2908 15.9388 36.4931C16.0241 36.6208 16.1649 36.6898 16.3084 36.6898C16.3925 36.6898 16.4774 36.6662 16.5528 36.6167C16.8607 36.4141 17.1781 36.1991 17.496 35.9777Z" fill="white"/>
<path d="M23.0201 35.402C23.0219 35.4059 23.0243 35.4102 23.0271 35.4149C23.0324 35.4306 23.0401 35.4445 23.0494 35.4564C23.0804 35.5215 23.1311 35.5697 23.198 35.5984C23.2045 35.6029 23.211 35.6068 23.2178 35.6102L23.2174 35.6109C23.2596 35.6317 23.3055 35.6334 23.3567 35.6334C23.3958 35.6334 23.431 35.6245 23.4617 35.6145C23.4721 35.6133 23.4824 35.6108 23.4922 35.6072C23.6012 35.5673 23.6795 35.4668 23.7002 35.3423L26.1129 29.6889C26.148 29.6051 26.1475 29.5074 26.1113 29.4208C26.0752 29.3339 26.0091 29.2674 25.934 29.2369C25.8473 29.1937 25.7457 29.1903 25.6554 29.2274C25.5677 29.2631 25.5007 29.3328 25.4749 29.4095L23.3569 34.3996L21.2478 29.4098C21.2116 29.3242 21.1395 29.2563 21.0492 29.2234C20.9608 29.1907 20.8624 29.1957 20.7888 29.2328C20.7058 29.2668 20.6378 29.3355 20.6021 29.4209C20.566 29.5076 20.5655 29.6052 20.6007 29.6891L23.0201 35.402Z" fill="white"/>
<path d="M27.8959 35.6335C28.0921 35.6335 28.2519 35.4788 28.2519 35.2887V32.9671H29.6098C29.6183 32.9708 29.6283 32.9748 29.6406 32.9787C29.6475 32.981 29.6544 32.9825 29.6618 32.9835C29.7644 32.999 30.0744 33.0926 30.3254 33.2694C30.6358 33.4974 30.7803 33.7621 30.7803 34.1025C30.7803 34.6057 30.8373 34.9386 30.9641 35.1797C31.082 35.4135 31.3152 35.536 31.4846 35.536H31.5025C31.5482 35.536 31.5881 35.531 31.6096 35.5274C31.6261 35.5274 31.6423 35.5243 31.6578 35.5185C31.8312 35.4517 31.9255 35.2684 31.8775 35.0671C31.832 34.9428 31.7114 34.8549 31.5754 34.8396C31.5638 34.8197 31.5546 34.7965 31.5482 34.7774C31.5147 34.678 31.4747 34.4802 31.4747 34.1025C31.4747 33.3242 30.9924 32.8812 30.6849 32.6774C31.231 32.3309 31.5728 31.7245 31.5728 31.0726C31.5728 30.0232 30.7162 29.1696 29.6633 29.1696H27.9228L27.8674 29.1699C27.6919 29.184 27.549 29.3385 27.549 29.5141V35.2888C27.5489 35.4755 27.7078 35.6335 27.8959 35.6335ZM28.2519 32.2786V29.8675H29.6633C30.3333 29.8675 30.8785 30.4082 30.8785 31.0726C30.8785 31.7212 30.3481 32.2624 29.6993 32.2786H28.2519Z" fill="white"/>
</svg>
