<svg width="55" height="54" viewBox="0 0 55 54" fill="none" xmlns="http://www.w3.org/2000/svg">
<path d="M30.1891 48.5441L30.2297 49.1837C30.2392 49.3325 30.3218 49.4673 30.4507 49.5441C30.5229 49.5869 30.6043 49.6087 30.6859 49.6087C30.7503 49.6087 30.8148 49.5953 30.8752 49.568L34.1587 48.0857C34.3378 48.0049 34.4448 47.8192 34.4241 47.6251C34.4034 47.4309 34.2596 47.2718 34.0673 47.2299L30.6423 46.4846C30.5023 46.455 30.3559 46.4906 30.2468 46.5834C30.1379 46.6761 30.0793 46.8141 30.0882 46.9561L30.1316 47.6387C29.2384 47.7072 28.3318 47.7428 27.4181 47.7428C23.6215 47.7428 20.0424 47.1601 17.0678 46.0578C16.5498 45.8658 16.0519 45.6579 15.5874 45.4394C15.3585 45.3317 15.0868 45.4286 14.9785 45.6549C14.8703 45.8812 14.9677 46.1518 15.1957 46.2589C15.6835 46.4883 16.2058 46.7066 16.7479 46.9075C19.8238 48.0473 23.5135 48.6498 27.4182 48.6498C28.351 48.6498 29.2767 48.6137 30.1891 48.5441Z" fill="white"/>
<path d="M10.8106 40.1185C10.8106 38.1605 12.4691 36.2918 15.4796 34.8501L27.1831 41.8117C27.1852 41.813 27.1875 41.8133 27.1895 41.8145C27.2141 41.8286 27.2405 41.8381 27.267 41.8473C27.2787 41.8514 27.2896 41.8578 27.3013 41.8609C27.3344 41.8695 27.3686 41.8731 27.4029 41.8743C27.4079 41.8745 27.4128 41.8763 27.4177 41.8763L27.4181 41.8762L27.4184 41.8763C27.4234 41.8763 27.4284 41.8745 27.4333 41.8743C27.4676 41.8732 27.5016 41.8696 27.5346 41.8609C27.5468 41.8577 27.558 41.8511 27.57 41.8469C27.5961 41.8377 27.6221 41.8285 27.6464 41.8146C27.6485 41.8134 27.6508 41.8131 27.653 41.8118L29.0643 40.9723C29.2809 40.8434 29.3512 40.5648 29.2215 40.3501L29.2213 40.3499C29.0915 40.135 28.8107 40.0656 28.5944 40.1942L27.4181 40.894L13.131 32.3954L27.4181 23.8969L41.705 32.3954L35.2271 36.2487C35.0104 36.3775 34.9401 36.6562 35.0699 36.8708L35.07 36.8709C35.1999 37.0857 35.4806 37.1555 35.697 37.0268L39.3565 34.85C42.3671 36.2918 44.0255 38.1605 44.0255 40.1185C44.0255 42.65 41.2466 45.0191 36.5921 46.4562C36.351 46.5306 36.2165 46.7848 36.2916 47.024C36.3525 47.2181 36.533 47.3429 36.7278 47.3429C36.7728 47.3429 36.8184 47.3362 36.8638 47.3222C41.9207 45.7611 44.9397 43.0681 44.9397 40.1185C44.9397 37.9193 43.2931 35.8686 40.2852 34.2976L42.829 32.7845C42.8318 32.7828 42.8338 32.7803 42.8365 32.7785C42.8666 32.7596 42.8948 32.7383 42.9196 32.7132C42.9233 32.7096 42.9259 32.7052 42.9294 32.7015C42.9498 32.6795 42.9678 32.6555 42.9835 32.6298C42.989 32.6208 42.9938 32.6116 42.9986 32.6022C43.0106 32.5792 43.0203 32.5553 43.0282 32.5302C43.0312 32.5207 43.0347 32.5116 43.0371 32.5019C43.0455 32.4676 43.0511 32.4322 43.0511 32.3954V14.3409C43.0511 14.304 43.0455 14.2687 43.0371 14.2344C43.0347 14.2247 43.0312 14.2156 43.0283 14.2062C43.0204 14.1811 43.0106 14.157 42.9985 14.1339C42.9937 14.1246 42.989 14.1156 42.9836 14.1067C42.9677 14.0807 42.9496 14.0566 42.9289 14.0343C42.9256 14.0308 42.9231 14.0268 42.9197 14.0233C42.8947 13.9981 42.8665 13.9765 42.8362 13.9577C42.8335 13.9561 42.8316 13.9536 42.8289 13.952L27.6531 4.92466C27.5085 4.83851 27.3278 4.83851 27.1832 4.92466L12.0071 13.9519C12.0039 13.9539 12.0013 13.9565 11.9981 13.9585C11.9922 13.9623 11.9861 13.9658 11.9803 13.9699C11.9702 13.9769 11.961 13.9852 11.9515 13.993C11.9429 14 11.9341 14.0066 11.9262 14.0141C11.9217 14.0183 11.9174 14.0226 11.913 14.0271C11.9049 14.0355 11.8978 14.0449 11.8902 14.054C11.8828 14.0629 11.875 14.0714 11.8684 14.0808C11.8644 14.0864 11.8608 14.0923 11.857 14.0982C11.8548 14.1016 11.852 14.1042 11.8499 14.1076C11.8459 14.1142 11.8438 14.1213 11.8402 14.128C11.8351 14.1375 11.8296 14.1465 11.8252 14.1563C11.822 14.1634 11.8194 14.1707 11.8165 14.1779C11.8122 14.1892 11.8087 14.2004 11.8053 14.2119C11.8025 14.2212 11.7994 14.2304 11.7972 14.2399C11.7955 14.2474 11.7942 14.255 11.7929 14.2626C11.7908 14.2743 11.7895 14.2859 11.7884 14.2977C11.7874 14.3085 11.7863 14.319 11.786 14.3298C11.7859 14.3335 11.7849 14.337 11.7849 14.3408V32.3953C11.7849 32.4322 11.7905 32.4675 11.7989 32.5018C11.8013 32.5116 11.8048 32.5207 11.8078 32.5302C11.8157 32.5552 11.8255 32.5791 11.8374 32.6021C11.8423 32.6115 11.8469 32.6207 11.8525 32.6298C11.8683 32.6554 11.8862 32.6793 11.9067 32.7014C11.9102 32.7051 11.9127 32.7094 11.9164 32.7131C11.9412 32.7381 11.9694 32.7596 11.9994 32.7784C12.0022 32.7801 12.0042 32.7827 12.007 32.7843L14.5509 34.2976C11.5429 35.8685 9.89629 37.9193 9.89629 40.1184C9.89629 40.3689 10.1009 40.5719 10.3534 40.5719C10.6059 40.572 10.8106 40.369 10.8106 40.1185ZM12.6991 15.1415L13.4183 15.5693C13.492 15.6132 13.573 15.634 13.653 15.634C13.8082 15.634 13.9597 15.5554 14.0455 15.4136L14.0455 15.4136C14.1753 15.1988 14.1049 14.9202 13.8884 14.7915L13.131 14.3409L27.4182 5.84238L41.7051 14.3409L27.4181 22.8393L21.343 19.2257C21.343 19.2257 21.3425 19.2253 21.3422 19.2252L20.9452 18.989C20.7285 18.8605 20.4478 18.9298 20.318 19.1447L20.318 19.1448C20.1883 19.3596 20.2586 19.6381 20.475 19.7669L20.872 20.003C20.8721 20.0031 20.8723 20.0032 20.8723 20.0032L26.5293 23.3681L12.6991 31.5947V15.1415ZM42.137 31.5947L28.307 23.3681L42.137 15.1415V31.5947Z" fill="white"/>
<path d="M11.0542 41.4048C10.9644 41.1704 10.7005 41.0531 10.4647 41.1415C10.2286 41.2304 10.1099 41.4923 10.1993 41.7264C10.399 42.2484 10.6988 42.7621 11.0905 43.2532C11.1807 43.3662 11.3142 43.4252 11.4492 43.4252C11.5485 43.4252 11.6484 43.3933 11.7325 43.3272C11.9304 43.1718 11.964 42.8866 11.8072 42.6901C11.4738 42.2723 11.2205 41.8397 11.0542 41.4048Z" fill="white"/>
<path d="M14.1824 44.6889C13.7089 44.4009 13.2761 44.0956 12.8961 43.7817C12.702 43.6218 12.414 43.6476 12.2522 43.8402C12.0908 44.0328 12.1172 44.3187 12.3112 44.479C12.725 44.8206 13.1938 45.1513 13.7046 45.462C13.779 45.5074 13.8615 45.529 13.9431 45.529C14.0968 45.529 14.2468 45.4521 14.3331 45.3125C14.465 45.0991 14.3975 44.8198 14.1824 44.6889Z" fill="white"/>
<path d="M19.5335 18.1496L18.1222 17.31C17.906 17.1812 17.6251 17.2509 17.4951 17.4657V17.4657C17.3653 17.6805 17.4357 17.9591 17.6522 18.0879L19.0636 18.9275C19.1371 18.9713 19.2182 18.9921 19.2982 18.9921C19.4534 18.9921 19.605 18.9135 19.6907 18.7717L19.6907 18.7717C19.8204 18.5569 19.7501 18.2783 19.5335 18.1496Z" fill="white"/>
<path d="M16.7109 16.4705L15.2997 15.631C15.0834 15.5019 14.8024 15.5718 14.6726 15.7867V15.7867C14.5428 16.0015 14.6131 16.2801 14.8297 16.4088L16.241 17.2483C16.3146 17.2922 16.3956 17.313 16.4756 17.313C16.6308 17.313 16.7823 17.2344 16.8681 17.0927C16.9978 16.8779 16.9275 16.5993 16.7109 16.4705Z" fill="white"/>
<path d="M34.2395 36.8359L32.8282 37.6754C32.6116 37.8042 32.5413 38.0829 32.6711 38.2976L32.6711 38.2977C32.7568 38.4396 32.9082 38.518 33.0635 38.518C33.1435 38.518 33.2246 38.4973 33.2981 38.4535L34.7095 37.614C34.926 37.4853 34.9964 37.2065 34.8666 36.9919L34.8666 36.9917C34.7367 36.7769 34.4559 36.7071 34.2395 36.8359Z" fill="white"/>
<path d="M31.4172 38.515L30.0057 39.3545C29.7891 39.4833 29.7187 39.762 29.8486 39.9767L29.8486 39.9767C29.9343 40.1186 30.0857 40.1971 30.2411 40.1971C30.3211 40.1971 30.4021 40.1764 30.4756 40.1326L31.8871 39.2931C32.1037 39.1643 32.174 38.8856 32.0442 38.6709L32.0441 38.6708C31.9143 38.456 31.6335 38.3862 31.4172 38.515Z" fill="white"/>
</svg>
