<svg width="54" height="54" viewBox="0 0 54 54" fill="none" xmlns="http://www.w3.org/2000/svg">
<g clip-path="url(#clip0_151_1361)">
<path d="M39.4739 38.9067L39.474 38.9066C40.1362 38.2445 40.1362 37.1671 39.474 36.5049C39.1534 36.1843 38.7267 36.0074 38.2731 36.0074C37.8196 36.0074 37.393 36.1843 37.0722 36.5052C36.4102 37.1671 36.4102 38.2445 37.0723 38.9066C37.7346 39.5686 38.8119 39.5686 39.4739 38.9067ZM37.6005 38.3784C37.4209 38.1988 37.3219 37.9599 37.3219 37.7057C37.3219 37.4517 37.4209 37.2126 37.6005 37.033C37.7802 36.8534 38.0192 36.7544 38.2733 36.7544C38.5274 36.7544 38.7662 36.8534 38.9459 37.033C39.3168 37.404 39.3168 38.0074 38.9458 38.3784C38.5749 38.7494 37.9715 38.7493 37.6005 38.3784Z" fill="white"/>
<path d="M42.4374 17.7509C42.4378 17.7504 42.4382 17.7501 42.4386 17.7497C42.4395 17.7489 42.4402 17.748 42.441 17.7472L42.5434 17.6448L42.5408 17.6422C44.063 16.0089 44.0295 13.4421 42.4384 11.851C41.6506 11.0631 40.6032 10.6292 39.4891 10.6292C38.4246 10.6292 37.4216 11.0261 36.6471 11.7486L36.6446 11.7461L36.5421 11.8485C36.5413 11.8494 36.5405 11.8501 36.5397 11.851C36.5393 11.8514 36.5389 11.8518 36.5385 11.8522L12.0345 36.3562L12.044 36.3657C11.9071 36.454 11.8078 36.5991 11.784 36.7732L10.9782 42.6594C10.9536 42.8388 11.0144 43.0192 11.1424 43.1473C11.2517 43.2565 11.3992 43.3167 11.5517 43.3167C11.5778 43.3167 11.604 43.3149 11.6303 43.3114L17.5162 42.5053C17.6904 42.4816 17.8355 42.3822 17.9238 42.2453L17.9333 42.2548L42.4374 17.7509ZM39.4891 11.7869C40.2939 11.7869 41.0506 12.1004 41.6197 12.6696C42.6547 13.7044 42.7781 15.3111 41.9898 16.4822L37.8067 12.2993C38.2998 11.9661 38.8807 11.7869 39.4891 11.7869ZM36.6446 13.3833L40.9061 17.6448L17.9333 40.6176L16.3301 39.0145L34.7706 20.5743L33.6666 19.4705L15.2264 37.9109L13.6717 36.3562L36.6446 13.3833ZM12.2286 42.061L12.8922 37.2138L17.0756 41.3972L12.2286 42.061Z" fill="white"/>
<path d="M20.2291 25.2233L21.2854 24.167L12.8327 15.7143L16.2817 12.2651L17.9171 13.9007L16.7306 15.087L17.6673 16.0237L18.8539 14.8374L19.8073 15.7908L18.6208 16.9773L19.5575 17.9139L20.7442 16.7276L21.6976 17.6811L19.9422 19.4361L20.8792 20.3729L22.6343 18.6177L23.7968 19.7802L22.6103 20.9669L23.5471 21.9035L24.7336 20.7169L24.7344 20.7178L25.7907 19.6615L16.8098 10.6808C16.5181 10.389 16.0453 10.389 15.7536 10.6808L11.2483 15.1861C10.9565 15.4778 10.9565 15.9507 11.2483 16.2424L20.2291 25.2233Z" fill="white"/>
<path d="M43.8884 37.7561C43.8749 37.7426 43.8609 37.7296 43.8467 37.7174L34.4484 28.3193L31.6369 31.1308L32.5717 32.0657L34.327 30.3104L42.3025 38.2857L38.8533 41.7348L29.9431 32.8246L28.8868 33.881L38.3251 43.3192C38.6168 43.611 39.0896 43.611 39.3814 43.3192L43.8869 38.814C43.8873 38.8134 43.8878 38.8131 43.8884 38.8124C44.1801 38.5209 44.1801 38.0478 43.8884 37.7561Z" fill="white"/>
</g>
<defs>
<clipPath id="clip0_151_1361">
<rect width="33.48" height="33.48" fill="white" transform="translate(10.8 10.26)"/>
</clipPath>
</defs>
</svg>
