<svg width="54" height="54" viewBox="0 0 54 54" fill="none" xmlns="http://www.w3.org/2000/svg">
<path d="M20.1603 30.7098L20.8184 30.4703C20.9075 30.4347 20.9806 30.3633 21.0224 30.2709C21.0642 30.1785 21.0714 30.0721 21.0427 29.974C21.0307 29.9257 21.0097 29.8806 20.9812 29.8413C20.9526 29.802 20.917 29.7693 20.8764 29.7454C20.8359 29.7214 20.7913 29.7065 20.7453 29.7017C20.6994 29.6969 20.653 29.7022 20.609 29.7174L19.9509 29.9569C19.8617 29.9925 19.7886 30.0639 19.7469 30.1563C19.7051 30.2487 19.6978 30.3551 19.7265 30.4532C19.7386 30.5015 19.7595 30.5466 19.7881 30.5859C19.8166 30.6252 19.8523 30.6579 19.8928 30.6818C19.9333 30.7058 19.9779 30.7207 20.0239 30.7255C20.0699 30.7303 20.1163 30.725 20.1603 30.7098ZM17.528 31.668L18.186 31.4285C18.2752 31.3929 18.3483 31.3215 18.3901 31.2291C18.4319 31.1367 18.4391 31.0303 18.4104 30.9323C18.3984 30.8839 18.3774 30.8388 18.3489 30.7995C18.3203 30.7602 18.2847 30.7275 18.2441 30.7036C18.2036 30.6796 18.159 30.6647 18.113 30.6599C18.0671 30.6551 18.0207 30.6605 17.9767 30.6756L17.3186 30.9151C17.2294 30.9507 17.1563 31.0221 17.1146 31.1145C17.0728 31.2069 17.0655 31.3133 17.0942 31.4114C17.1063 31.4597 17.1272 31.5048 17.1558 31.5441C17.1843 31.5834 17.22 31.6161 17.2605 31.64C17.301 31.664 17.3456 31.6789 17.3916 31.6837C17.4376 31.6885 17.484 31.6832 17.528 31.668ZM14.8957 32.6262L15.5537 32.3867C15.6429 32.3511 15.716 32.2797 15.7578 32.1873C15.7996 32.0949 15.8068 31.9886 15.7781 31.8905C15.7661 31.8422 15.7451 31.797 15.7166 31.7577C15.688 31.7184 15.6524 31.6858 15.6118 31.6618C15.5713 31.6378 15.5267 31.6229 15.4807 31.6181C15.4348 31.6133 15.3884 31.6187 15.3443 31.6338L14.6863 31.8733C14.5971 31.9089 14.524 31.9803 14.4822 32.0727C14.4405 32.1651 14.4332 32.2715 14.4619 32.3696C14.474 32.4179 14.4949 32.463 14.5235 32.5023C14.552 32.5416 14.5877 32.5743 14.6282 32.5983C14.6687 32.6222 14.7133 32.6371 14.7593 32.6419C14.8053 32.6467 14.8516 32.6414 14.8957 32.6262ZM12.2633 33.5844L12.9214 33.3449C13.0106 33.3093 13.0837 33.2379 13.1255 33.1455C13.1672 33.0531 13.1745 32.9468 13.1458 32.8487C13.1337 32.8004 13.1128 32.7552 13.0842 32.7159C13.0557 32.6766 13.02 32.644 12.9795 32.62C12.939 32.596 12.8944 32.5812 12.8484 32.5763C12.8024 32.5715 12.7561 32.5769 12.712 32.592L12.054 32.8316C11.9648 32.8671 11.8917 32.9385 11.8499 33.0309C11.8081 33.1234 11.8009 33.2297 11.8296 33.3278C11.8416 33.3761 11.8626 33.4212 11.8911 33.4605C11.9197 33.4998 11.9553 33.5325 11.9959 33.5565C12.0364 33.5804 12.081 33.5953 12.127 33.6001C12.1729 33.6049 12.2193 33.5996 12.2633 33.5844ZM9.63104 34.5426L10.2891 34.3031C10.3783 34.2676 10.4514 34.1961 10.4932 34.1037C10.5349 34.0113 10.5422 33.905 10.5135 33.8069C10.5014 33.7586 10.4805 33.7134 10.4519 33.6741C10.4234 33.6348 10.3877 33.6022 10.3472 33.5782C10.3067 33.5542 10.2621 33.5394 10.2161 33.5346C10.1701 33.5297 10.1237 33.5351 10.0797 33.5502L9.42165 33.7898C9.33249 33.8253 9.25941 33.8967 9.21762 33.9891C9.17583 34.0816 9.16856 34.1879 9.19731 34.286C9.20933 34.3343 9.23026 34.3794 9.25884 34.4187C9.28741 34.4581 9.32304 34.4907 9.36357 34.5147C9.4041 34.5386 9.44869 34.5535 9.49466 34.5583C9.54063 34.5631 9.58703 34.5578 9.63104 34.5426Z" fill="white"/>
<path d="M25.4091 29.9569L24.751 29.7174C24.707 29.7022 24.6606 29.6969 24.6147 29.7017C24.5687 29.7065 24.5241 29.7214 24.4836 29.7454C24.443 29.7693 24.4074 29.802 24.3788 29.8413C24.3503 29.8806 24.3293 29.9257 24.3173 29.974C24.2886 30.0721 24.2958 30.1785 24.3376 30.2709C24.3794 30.3633 24.4525 30.4347 24.5417 30.4703L25.1997 30.7098C25.2437 30.725 25.2901 30.7303 25.3361 30.7255C25.3821 30.7207 25.4267 30.7058 25.4672 30.6818C25.5077 30.6579 25.5434 30.6252 25.5719 30.5859C25.6005 30.5466 25.6214 30.5014 25.6335 30.4531C25.6622 30.3551 25.6549 30.2487 25.6131 30.1563C25.5714 30.0639 25.4983 29.9925 25.4091 29.9569ZM28.0414 30.9151L27.3833 30.6756C27.3393 30.6605 27.2929 30.6551 27.247 30.6599C27.201 30.6647 27.1564 30.6796 27.1159 30.7036C27.0753 30.7275 27.0397 30.7602 27.0111 30.7995C26.9826 30.8388 26.9616 30.8839 26.9496 30.9323C26.9209 31.0303 26.9281 31.1367 26.9699 31.2291C27.0117 31.3215 27.0848 31.3929 27.174 31.4285L27.832 31.668C27.8761 31.6832 27.9224 31.6885 27.9684 31.6837C28.0144 31.6789 28.059 31.664 28.0995 31.64C28.14 31.6161 28.1757 31.5834 28.2042 31.5441C28.2328 31.5048 28.2537 31.4597 28.2658 31.4114C28.2945 31.3133 28.2872 31.2069 28.2455 31.1145C28.2037 31.0221 28.1306 30.9507 28.0414 30.9151ZM30.6737 31.8733L30.0157 31.6338C29.9716 31.6187 29.9252 31.6133 29.8793 31.6181C29.8333 31.6229 29.7887 31.6378 29.7482 31.6618C29.7077 31.6858 29.672 31.7184 29.6435 31.7577C29.6149 31.797 29.5939 31.8422 29.5819 31.8905C29.5532 31.9886 29.5604 32.0949 29.6022 32.1873C29.644 32.2797 29.7171 32.3511 29.8063 32.3867L30.4643 32.6262C30.5084 32.6414 30.5548 32.6467 30.6007 32.6419C30.6467 32.6371 30.6913 32.6222 30.7318 32.5983C30.7723 32.5743 30.808 32.5416 30.8366 32.5023C30.8651 32.463 30.8861 32.4179 30.8981 32.3696C30.9268 32.2715 30.9196 32.1651 30.8778 32.0727C30.836 31.9803 30.7629 31.9089 30.6737 31.8733ZM33.306 32.8316L32.648 32.592C32.604 32.5769 32.5576 32.5715 32.5116 32.5763C32.4656 32.5812 32.421 32.596 32.3805 32.62C32.34 32.644 32.3043 32.6766 32.2758 32.7159C32.2472 32.7552 32.2263 32.8004 32.2142 32.8487C32.1855 32.9468 32.1928 33.0531 32.2345 33.1455C32.2763 33.2379 32.3494 33.3093 32.4386 33.3449L33.0967 33.5844C33.1407 33.5996 33.1871 33.6049 33.233 33.6001C33.279 33.5953 33.3236 33.5804 33.3641 33.5565C33.4047 33.5325 33.4403 33.4998 33.4689 33.4605C33.4974 33.4212 33.5184 33.3761 33.5304 33.3278C33.5591 33.2297 33.5519 33.1234 33.5101 33.0309C33.4683 32.9385 33.3952 32.8671 33.306 32.8316ZM35.9384 33.7898L35.2803 33.5502C35.2363 33.5351 35.1899 33.5297 35.1439 33.5346C35.0979 33.5394 35.0533 33.5542 35.0128 33.5782C34.9723 33.6022 34.9366 33.6348 34.9081 33.6741C34.8795 33.7134 34.8586 33.7586 34.8465 33.8069C34.8178 33.905 34.8251 34.0113 34.8669 34.1037C34.9086 34.1961 34.9817 34.2676 35.0709 34.3031L35.729 34.5426C35.773 34.5578 35.8194 34.5631 35.8653 34.5583C35.9113 34.5535 35.9559 34.5386 35.9964 34.5147C36.037 34.4907 36.0726 34.4581 36.1012 34.4187C36.1297 34.3794 36.1507 34.3343 36.1627 34.286C36.1914 34.1879 36.1842 34.0816 36.1424 33.9891C36.1006 33.8967 36.0275 33.8253 35.9384 33.7898Z" fill="white"/>
<path d="M22.68 10.26C22.5369 10.2603 22.3998 10.2945 22.2986 10.3552C22.1975 10.4159 22.1404 10.4982 22.14 10.584V11.232C22.14 11.3179 22.1969 11.4004 22.2982 11.4611C22.3994 11.5219 22.5368 11.556 22.68 11.556C22.8232 11.556 22.9606 11.5219 23.0618 11.4611C23.1631 11.4004 23.22 11.3179 23.22 11.232V10.584C23.2196 10.4982 23.1626 10.4159 23.0614 10.3552C22.9602 10.2945 22.8231 10.2603 22.68 10.26ZM22.68 12.852C22.5369 12.8523 22.3998 12.8865 22.2986 12.9472C22.1975 13.0079 22.1404 13.0902 22.14 13.176V13.824C22.14 13.9099 22.1969 13.9924 22.2982 14.0531C22.3994 14.1139 22.5368 14.148 22.68 14.148C22.8232 14.148 22.9606 14.1139 23.0618 14.0531C23.1631 13.9924 23.22 13.9099 23.22 13.824V13.176C23.2196 13.0902 23.1626 13.0079 23.0614 12.9472C22.9602 12.8865 22.8231 12.8523 22.68 12.852ZM22.68 15.444C22.5369 15.4443 22.3998 15.4785 22.2986 15.5392C22.1975 15.5999 22.1404 15.6822 22.14 15.768V16.416C22.14 16.5019 22.1969 16.5844 22.2982 16.6451C22.3994 16.7059 22.5368 16.74 22.68 16.74C22.8232 16.74 22.9606 16.7059 23.0618 16.6451C23.1631 16.5844 23.22 16.5019 23.22 16.416V15.768C23.2196 15.6822 23.1626 15.5999 23.0614 15.5392C22.9602 15.4785 22.8231 15.4443 22.68 15.444Z" fill="white"/>
<path d="M38.333 13.791C38.3191 13.7243 38.286 13.663 38.2378 13.6148C38.1896 13.5666 38.1283 13.5335 38.0616 13.5196L22.7844 8.65829C22.7169 8.63392 22.6431 8.63392 22.5756 8.65829L7.2984 13.5196C7.23166 13.5335 7.17044 13.5666 7.12223 13.6148C7.07401 13.663 7.04091 13.7243 7.02696 13.791C7.02275 13.814 7.02042 13.8372 7.02 13.8606V34.7394C7.02042 34.7628 7.02275 34.7861 7.02696 34.809C7.03941 34.8697 7.06794 34.926 7.10957 34.9719C7.1512 35.0178 7.2044 35.0517 7.2636 35.07L7.2984 35.0805L22.5443 39.9313L22.5756 39.9418C22.6431 39.9661 22.7169 39.9661 22.7844 39.9418L22.8157 39.9313L38.0964 35.07C38.1669 35.0481 38.2286 35.0041 38.2724 34.9447C38.3162 34.8852 38.3399 34.8133 38.34 34.7394V13.8606C38.3396 13.8372 38.3373 13.814 38.333 13.791ZM22.68 9.35425L36.8436 13.8606L22.68 18.367L8.5164 13.8606L22.68 9.35425ZM7.716 14.3339L22.332 18.9864V39.1344L7.716 34.4854V14.3339ZM37.644 34.4854L23.028 39.1344V18.9864L37.644 14.3339V34.4854Z" fill="white"/>
<g clip-path="url(#clip0_151_1134)">
<path d="M41.58 41.0906C41.1628 41.0906 40.755 41.2143 40.4081 41.4461C40.0612 41.6779 39.7908 42.0073 39.6312 42.3927C39.4715 42.7782 39.4298 43.2023 39.5112 43.6115C39.5925 44.0206 39.7934 44.3965 40.0884 44.6915C40.3835 44.9865 40.7593 45.1874 41.1685 45.2688C41.5777 45.3502 42.0018 45.3084 42.3872 45.1488C42.7727 44.9891 43.1021 44.7187 43.3339 44.3719C43.5657 44.025 43.6894 43.6171 43.6894 43.2C43.6894 42.6405 43.4671 42.104 43.0716 41.7084C42.676 41.3128 42.1394 41.0906 41.58 41.0906ZM41.58 44.8031C41.2629 44.8031 40.953 44.7091 40.6894 44.5329C40.4257 44.3567 40.2202 44.1064 40.0989 43.8134C39.9776 43.5205 39.9458 43.1982 40.0077 42.8872C40.0695 42.5762 40.2222 42.2906 40.4464 42.0664C40.6706 41.8422 40.9563 41.6895 41.2672 41.6276C41.5782 41.5658 41.9006 41.5975 42.1935 41.7189C42.4864 41.8402 42.7368 42.0457 42.913 42.3093C43.0891 42.5729 43.1831 42.8829 43.1831 43.2C43.1831 43.6251 43.0142 44.0329 42.7136 44.3335C42.4129 44.6342 42.0052 44.8031 41.58 44.8031Z" fill="white"/>
<path d="M46.3894 41.85H45.6359C45.6184 41.8499 45.6013 41.8443 45.5871 41.834C45.5729 41.8237 45.5622 41.8092 45.5566 41.7926C45.5076 41.6533 45.4512 41.5167 45.3879 41.3834C45.3799 41.3677 45.3771 41.3498 45.3799 41.3324C45.3826 41.315 45.3907 41.2989 45.403 41.2864L45.9354 40.7531C45.9903 40.6983 46.0338 40.6332 46.0635 40.5615C46.0932 40.4898 46.1085 40.413 46.1085 40.3355C46.1085 40.2579 46.0932 40.1811 46.0635 40.1094C46.0338 40.0378 45.9903 39.9726 45.9354 39.9178L44.8614 38.8446C44.8065 38.7897 44.7414 38.7462 44.6697 38.7165C44.5981 38.6868 44.5213 38.6715 44.4437 38.6715C44.3661 38.6715 44.2893 38.6868 44.2177 38.7165C44.146 38.7462 44.0809 38.7897 44.026 38.8446L43.4936 39.377C43.4811 39.3893 43.465 39.3974 43.4476 39.4001C43.4302 39.4028 43.4123 39.4001 43.3966 39.3921C43.2633 39.3287 43.1267 39.2724 42.9874 39.2234C42.9708 39.2178 42.9563 39.2071 42.946 39.1929C42.9357 39.1787 42.9301 39.1616 42.93 39.1441V38.3906C42.93 38.234 42.8678 38.0837 42.757 37.973C42.6463 37.8622 42.496 37.8 42.3394 37.8H40.8206C40.664 37.8 40.5138 37.8622 40.403 37.973C40.2922 38.0837 40.23 38.234 40.23 38.3906V39.1441C40.2299 39.1616 40.2243 39.1787 40.214 39.1929C40.2037 39.2071 40.1893 39.2178 40.1726 39.2234C40.0334 39.2724 39.8968 39.3288 39.7634 39.3921C39.7477 39.4001 39.7299 39.4028 39.7125 39.4001C39.6951 39.3974 39.6789 39.3893 39.6664 39.377L39.1331 38.8446C39.0783 38.7897 39.0132 38.7462 38.9415 38.7165C38.8699 38.6868 38.793 38.6715 38.7155 38.6715C38.6379 38.6715 38.5611 38.6868 38.4894 38.7165C38.4178 38.7462 38.3527 38.7897 38.2978 38.8446L37.2246 39.9186C37.1697 39.9735 37.1262 40.0386 37.0965 40.1103C37.0668 40.1819 37.0516 40.2587 37.0516 40.3363C37.0516 40.4139 37.0668 40.4907 37.0965 40.5623C37.1262 40.634 37.1697 40.6991 37.2246 40.754L37.757 41.2864C37.7693 41.2989 37.7774 41.315 37.7801 41.3324C37.7829 41.3498 37.7801 41.3677 37.7722 41.3834C37.7088 41.5167 37.6524 41.6533 37.6034 41.7926C37.5978 41.8092 37.5871 41.8237 37.5729 41.834C37.5587 41.8443 37.5416 41.8499 37.5241 41.85H36.7706C36.614 41.85 36.4638 41.9122 36.353 42.023C36.2422 42.1337 36.18 42.284 36.18 42.4406V43.9594C36.18 44.116 36.2422 44.2662 36.353 44.377C36.4638 44.4878 36.614 44.55 36.7706 44.55H37.5241C37.5416 44.5501 37.5587 44.5557 37.5729 44.566C37.5871 44.5763 37.5978 44.5907 37.6034 44.6074C37.6524 44.7466 37.7088 44.8832 37.7722 45.0166C37.7801 45.0323 37.7829 45.0501 37.7801 45.0675C37.7774 45.0849 37.7693 45.101 37.757 45.1136L37.2246 45.6469C37.1697 45.7017 37.1262 45.7668 37.0965 45.8385C37.0668 45.9101 37.0516 45.987 37.0516 46.0645C37.0516 46.1421 37.0668 46.2189 37.0965 46.2906C37.1262 46.3622 37.1697 46.4273 37.2246 46.4822L38.2987 47.5563C38.3535 47.6111 38.4186 47.6546 38.4903 47.6843C38.5619 47.714 38.6388 47.7293 38.7163 47.7293C38.7939 47.7293 38.8707 47.714 38.9424 47.6843C39.014 47.6546 39.0791 47.6111 39.134 47.5563L39.6664 47.0239C39.6789 47.0115 39.6951 47.0034 39.7125 47.0007C39.7299 46.998 39.7477 47.0008 39.7634 47.0087C39.8968 47.0721 40.0334 47.1284 40.1726 47.1774C40.1893 47.183 40.2037 47.1937 40.214 47.2079C40.2243 47.2221 40.2299 47.2392 40.23 47.2567V48.0094C40.23 48.166 40.2922 48.3162 40.403 48.427C40.5138 48.5378 40.664 48.6 40.8206 48.6H42.3394C42.496 48.6 42.6463 48.5378 42.757 48.427C42.8678 48.3162 42.93 48.166 42.93 48.0094V47.2559C42.9301 47.2383 42.9357 47.2213 42.946 47.2071C42.9563 47.1929 42.9708 47.1822 42.9874 47.1766C43.1267 47.1275 43.2632 47.0712 43.3966 47.0078C43.4123 46.9999 43.4302 46.9971 43.4476 46.9999C43.465 47.0026 43.4811 47.0107 43.4936 47.023L44.0269 47.5554C44.0817 47.6103 44.1468 47.6538 44.2185 47.6835C44.2902 47.7132 44.367 47.7284 44.4445 47.7284C44.5221 47.7284 44.5989 47.7132 44.6706 47.6835C44.7422 47.6538 44.8073 47.6103 44.8622 47.5554L45.9363 46.4813C45.9911 46.4265 46.0346 46.3614 46.0643 46.2897C46.094 46.218 46.1093 46.1412 46.1093 46.0637C46.1093 45.9861 46.094 45.9093 46.0643 45.8376C46.0346 45.766 45.9911 45.7009 45.9363 45.646L45.4039 45.1136C45.3915 45.101 45.3834 45.0849 45.3807 45.0675C45.378 45.0501 45.3808 45.0323 45.3887 45.0166C45.4521 44.8832 45.5084 44.7466 45.5574 44.6074C45.5631 44.5907 45.5737 44.5763 45.5879 44.566C45.6021 44.5557 45.6192 44.5501 45.6368 44.55H46.3894C46.546 44.55 46.6963 44.4878 46.807 44.377C46.9178 44.2662 46.98 44.116 46.98 43.9594V42.4406C46.98 42.284 46.9178 42.1337 46.807 42.023C46.6963 41.9122 46.546 41.85 46.3894 41.85ZM46.4738 43.9594C46.4738 43.9817 46.4649 44.0032 46.449 44.019C46.4332 44.0348 46.4118 44.0437 46.3894 44.0437H45.6359C45.5135 44.0439 45.3942 44.082 45.2945 44.1529C45.1947 44.2238 45.1194 44.3239 45.079 44.4395C45.0359 44.5618 44.9863 44.6818 44.9305 44.7989C44.8771 44.9093 44.8593 45.0336 44.8797 45.1546C44.9001 45.2755 44.9577 45.3871 45.0444 45.4739L45.5769 46.0063C45.5926 46.0221 45.6014 46.0435 45.6014 46.0658C45.6014 46.0881 45.5926 46.1095 45.5769 46.1253L44.5036 47.1977C44.4878 47.2134 44.4664 47.2222 44.4441 47.2222C44.4218 47.2222 44.4004 47.2134 44.3846 47.1977L43.8522 46.6653C43.7655 46.5785 43.6539 46.521 43.5329 46.5006C43.4119 46.4801 43.2876 46.4979 43.1772 46.5514C43.0598 46.6072 42.9396 46.6567 42.8169 46.6999C42.7016 46.7404 42.6016 46.8157 42.5309 46.9155C42.4602 47.0152 42.4221 47.1345 42.4221 47.2567V48.0094C42.4221 48.0317 42.4132 48.0532 42.3974 48.069C42.3815 48.0848 42.3601 48.0937 42.3377 48.0937H40.8206C40.7983 48.0937 40.7768 48.0848 40.761 48.069C40.7451 48.0532 40.7363 48.0317 40.7363 48.0094V47.2559C40.7361 47.1335 40.698 47.0142 40.6271 46.9144C40.5562 46.8147 40.4561 46.7394 40.3405 46.699C40.2182 46.6558 40.0982 46.6063 39.9811 46.5505C39.8707 46.4971 39.7464 46.4793 39.6254 46.4997C39.5045 46.5201 39.3929 46.5777 39.3061 46.6644L38.7737 47.1968C38.7579 47.2125 38.7365 47.2214 38.7142 47.2214C38.6919 47.2214 38.6705 47.2125 38.6547 47.1968L37.5823 46.1236C37.5666 46.1078 37.5578 46.0864 37.5578 46.0641C37.5578 46.0418 37.5666 46.0204 37.5823 46.0046L38.1147 45.4722C38.2015 45.3855 38.259 45.2739 38.2794 45.1529C38.2999 45.0319 38.2821 44.9076 38.2286 44.7972C38.1728 44.6798 38.1233 44.5595 38.0801 44.4369C38.0394 44.322 37.964 44.2225 37.8645 44.1521C37.7649 44.0817 37.646 44.0439 37.5241 44.0437H36.7706C36.7483 44.0437 36.7268 44.0348 36.711 44.019C36.6951 44.0032 36.6863 43.9817 36.6863 43.9594V42.4406C36.6863 42.4182 36.6951 42.3968 36.711 42.381C36.7268 42.3651 36.7483 42.3562 36.7706 42.3562H37.5241C37.6465 42.3561 37.7658 42.3179 37.8656 42.2471C37.9653 42.1762 38.0406 42.076 38.081 41.9605C38.1241 41.8382 38.1737 41.7182 38.2295 41.6011C38.2829 41.4907 38.3007 41.3664 38.2803 41.2454C38.2599 41.1244 38.2023 41.0128 38.1156 40.9261L37.5832 40.3937C37.5674 40.3779 37.5586 40.3565 37.5586 40.3342C37.5586 40.3119 37.5674 40.2905 37.5832 40.2747L38.6564 39.2023C38.6722 39.1866 38.6936 39.1778 38.7159 39.1778C38.7382 39.1778 38.7596 39.1866 38.7754 39.2023L39.3078 39.7347C39.3945 39.8214 39.5061 39.879 39.6271 39.8994C39.7481 39.9198 39.8724 39.9021 39.9828 39.8486C40.1002 39.7928 40.2205 39.7433 40.3431 39.7001C40.458 39.6594 40.5575 39.584 40.6279 39.4845C40.6983 39.3849 40.7361 39.266 40.7363 39.1441V38.3906C40.7363 38.3682 40.7451 38.3468 40.761 38.331C40.7768 38.3151 40.7983 38.3062 40.8206 38.3062H42.3394C42.3618 38.3062 42.3832 38.3151 42.399 38.331C42.4149 38.3468 42.4238 38.3682 42.4238 38.3906V39.1441C42.4239 39.2665 42.462 39.3858 42.5329 39.4855C42.6038 39.5853 42.704 39.6606 42.8195 39.701C42.9418 39.7441 43.0618 39.7937 43.1789 39.8495C43.2893 39.9029 43.4136 39.9207 43.5346 39.9003C43.6556 39.8799 43.7672 39.8223 43.8539 39.7356L44.3863 39.2031C44.4021 39.1874 44.4235 39.1786 44.4458 39.1786C44.4681 39.1786 44.4895 39.1874 44.5053 39.2031L45.5794 40.2772C45.5951 40.293 45.6039 40.3144 45.6039 40.3367C45.6039 40.359 45.5951 40.3804 45.5794 40.3962L45.047 40.9286C44.9602 41.0154 44.9027 41.127 44.8823 41.2479C44.8618 41.3689 44.8796 41.4932 44.9331 41.6036C44.9889 41.721 45.0384 41.8413 45.0816 41.9639C45.1221 42.0793 45.1974 42.1792 45.2972 42.2499C45.3969 42.3207 45.5162 42.3587 45.6384 42.3588H46.3894C46.4118 42.3588 46.4332 42.3677 46.449 42.3835C46.4649 42.3993 46.4738 42.4208 46.4738 42.4431V43.9594Z" fill="white"/>
</g>
<defs>
<clipPath id="clip0_151_1134">
<rect width="10.8" height="10.8" fill="white" transform="translate(36.18 37.8)"/>
</clipPath>
</defs>
</svg>
