<svg width="54" height="54" viewBox="0 0 54 54" fill="none" xmlns="http://www.w3.org/2000/svg">
<path d="M38.3318 12.624C38.2298 12.7254 38.0917 12.7821 37.948 12.7816C37.8042 12.7812 37.6665 12.7236 37.5651 12.6216C37.4638 12.5196 37.4071 12.3816 37.4075 12.2378C37.408 12.094 37.4655 11.9563 37.5675 11.8549C38.0593 11.3744 38.8332 12.129 38.3318 12.624ZM35.0619 11.7034C34.9186 11.7034 34.7812 11.7603 34.6799 11.8616C34.5787 11.9629 34.5217 12.1003 34.5217 12.2435C34.5217 12.3868 34.5787 12.5242 34.6799 12.6255C34.7812 12.7267 34.9186 12.7837 35.0619 12.7837C35.2051 12.7837 35.3425 12.7267 35.4438 12.6255C35.5451 12.5242 35.602 12.3868 35.602 12.2435C35.602 12.1003 35.5451 11.9629 35.4438 11.8616C35.3425 11.7603 35.2051 11.7034 35.0619 11.7034ZM31.8001 11.8646C31.3163 12.3483 32.0742 13.1287 32.5708 12.6273C33.0674 12.1258 32.3015 11.3712 31.8001 11.8614V11.8646ZM12.7821 23.0577V9.72014C12.7821 9.57716 12.8387 9.44002 12.9397 9.33877C13.0406 9.23752 13.1776 9.18042 13.3206 9.17999H40.681C40.8243 9.17999 40.9617 9.2369 41.063 9.3382C41.1643 9.4395 41.2212 9.57688 41.2212 9.72014V23.7591C41.2212 23.9024 41.1643 24.0398 41.063 24.1411C40.9617 24.2424 40.8243 24.2993 40.681 24.2993C40.5378 24.2993 40.4004 24.2424 40.2991 24.1411C40.1978 24.0398 40.1409 23.9024 40.1409 23.7591V15.307H13.8559V23.0577C13.8599 23.131 13.8489 23.2044 13.8236 23.2733C13.7983 23.3422 13.7593 23.4053 13.7088 23.4586C13.6583 23.5119 13.5975 23.5544 13.5301 23.5834C13.4626 23.6124 13.39 23.6274 13.3166 23.6274C13.2431 23.6274 13.1705 23.6124 13.1031 23.5834C13.0356 23.5544 12.9748 23.5119 12.9243 23.4586C12.8738 23.4053 12.8348 23.3422 12.8095 23.2733C12.7842 23.2044 12.7732 23.131 12.7772 23.0577H12.7821ZM13.8559 14.2203H40.1377V10.2603H13.8559V14.2203ZM40.681 34.741C40.5378 34.741 40.4004 34.7979 40.2991 34.8992C40.1978 35.0005 40.1409 35.1379 40.1409 35.2812V43.7397H13.8559V36.0196C13.8599 35.9463 13.8489 35.873 13.8236 35.804C13.7983 35.7351 13.7593 35.6721 13.7088 35.6188C13.6583 35.5655 13.5975 35.523 13.5301 35.494C13.4626 35.465 13.39 35.45 13.3166 35.45C13.2431 35.45 13.1705 35.465 13.1031 35.494C13.0356 35.523 12.9748 35.5655 12.9243 35.6188C12.8738 35.6721 12.8348 35.7351 12.8095 35.804C12.7842 35.873 12.7732 35.9463 12.7772 36.0196V44.2798C12.7772 44.4228 12.8339 44.56 12.9349 44.6612C13.0358 44.7625 13.1728 44.8196 13.3157 44.82H40.681C40.8243 44.82 40.9617 44.7631 41.063 44.6618C41.1643 44.5605 41.2212 44.4231 41.2212 44.2798V35.2812C41.2212 35.1379 41.1643 35.0005 41.063 34.8992C40.9617 34.7979 40.8243 34.741 40.681 34.741ZM44.5975 29.9394L39.5572 33.5559C39.4631 33.6227 39.3501 33.6578 39.2347 33.6559H13.8559C13.8819 33.7403 13.8877 33.8296 13.8729 33.9167C13.8581 34.0038 13.823 34.0861 13.7705 34.1572C13.7181 34.2282 13.6497 34.286 13.5708 34.3258C13.492 34.3656 13.4049 34.3863 13.3166 34.3863C13.2282 34.3863 13.1411 34.3656 13.0623 34.3258C12.9834 34.286 12.915 34.2282 12.8626 34.1572C12.8101 34.0861 12.7751 34.0038 12.7602 33.9167C12.7454 33.8296 12.7512 33.7403 12.7772 33.6559H11.16C10.635 33.6555 10.1316 33.4467 9.7604 33.0755C9.38917 32.7043 9.18043 32.2009 9.18 31.6759V27.3789C9.18085 26.8542 9.38979 26.3512 9.76097 25.9803C10.1322 25.6095 10.6353 25.4009 11.16 25.4005H12.7821C12.7561 25.3161 12.7502 25.2268 12.7651 25.1397C12.7799 25.0526 12.8149 24.9703 12.8674 24.8992C12.9199 24.8282 12.9883 24.7704 13.0671 24.7306C13.146 24.6908 13.2331 24.6701 13.3214 24.6701C13.4097 24.6701 13.4968 24.6908 13.5757 24.7306C13.6545 24.7704 13.7229 24.8282 13.7754 24.8992C13.8278 24.9703 13.8629 25.0526 13.8777 25.1397C13.8925 25.2268 13.8867 25.3161 13.8607 25.4005H39.2412C39.3526 25.4002 39.4614 25.4346 39.5524 25.4989L44.5927 29.059C44.6625 29.109 44.7196 29.1748 44.7591 29.2511C44.7986 29.3274 44.8194 29.412 44.8199 29.4979C44.8203 29.5839 44.8004 29.6687 44.7618 29.7454C44.7231 29.8221 44.6668 29.8886 44.5975 29.9394ZM12.7821 26.4792C11.9759 26.5566 10.2925 26.1035 10.2603 27.3789V31.6759C10.2893 32.9497 11.9823 32.5014 12.7821 32.5772V26.4792ZM38.6865 30.0603L13.8559 30.0748V32.5772H38.6865V30.0603ZM38.6865 26.4792H13.8559V28.9961L38.6865 28.98V26.4792ZM43.3463 29.504L39.7668 26.9758V32.0758L43.3463 29.504ZM37.0822 21.7904H32.1741C32.0362 21.7979 31.9064 21.8581 31.8114 21.9584C31.7164 22.0587 31.6635 22.1916 31.6635 22.3297C31.6635 22.4679 31.7164 22.6008 31.8114 22.7011C31.9064 22.8014 32.0362 22.8615 32.1741 22.8691H37.0822C37.2201 22.8615 37.3499 22.8014 37.4449 22.7011C37.5399 22.6008 37.5928 22.4679 37.5928 22.3297C37.5928 22.1916 37.5399 22.0587 37.4449 21.9584C37.3499 21.8581 37.2201 21.7979 37.0822 21.7904ZM16.9194 22.8691H28.5737C28.7116 22.8615 28.8414 22.8014 28.9364 22.7011C29.0314 22.6008 29.0843 22.4679 29.0843 22.3297C29.0843 22.1916 29.0314 22.0587 28.9364 21.9584C28.8414 21.8581 28.7116 21.7979 28.5737 21.7904H16.9194C16.7815 21.7979 16.6517 21.8581 16.5567 21.9584C16.4617 22.0587 16.4088 22.1916 16.4088 22.3297C16.4088 22.4679 16.4617 22.6008 16.5567 22.7011C16.6517 22.8014 16.7815 22.8615 16.9194 22.8691ZM37.0741 18.1932H26.3244C26.1812 18.1932 26.0438 18.2501 25.9425 18.3514C25.8412 18.4527 25.7843 18.5901 25.7843 18.7333C25.7843 18.8766 25.8412 19.014 25.9425 19.1153C26.0438 19.2166 26.1812 19.2735 26.3244 19.2735H37.0822C37.2259 19.2735 37.3637 19.2164 37.4653 19.1148C37.5669 19.0132 37.624 18.8754 37.624 18.7317C37.624 18.588 37.5669 18.4502 37.4653 18.3486C37.3637 18.247 37.2259 18.19 37.0822 18.19L37.0741 18.1932ZM16.9194 19.2735H22.724C22.8672 19.2735 23.0046 19.2166 23.1059 19.1153C23.2072 19.014 23.2641 18.8766 23.2641 18.7333C23.2641 18.5901 23.2072 18.4527 23.1059 18.3514C23.0046 18.2501 22.8672 18.1932 22.724 18.1932H16.9194C16.7838 18.2037 16.6571 18.265 16.5647 18.3648C16.4723 18.4647 16.421 18.5957 16.421 18.7317C16.421 18.8678 16.4723 18.9988 16.5647 19.0986C16.6571 19.1985 16.7838 19.2597 16.9194 19.2703V19.2735ZM23.8946 40.3311C23.8946 40.4021 23.9085 40.4723 23.9357 40.5378C23.9628 40.6034 24.0026 40.6629 24.0528 40.7131C24.1029 40.7632 24.1625 40.803 24.228 40.8302C24.2935 40.8573 24.3638 40.8713 24.4347 40.8713H32.0403C32.1136 40.8753 32.187 40.8643 32.2559 40.839C32.3248 40.8137 32.3878 40.7746 32.4412 40.7242C32.4945 40.6737 32.5369 40.6129 32.566 40.5454C32.595 40.478 32.6099 40.4054 32.6099 40.3319C32.6099 40.2585 32.595 40.1859 32.566 40.1184C32.5369 40.051 32.4945 39.9902 32.4412 39.9397C32.3878 39.8892 32.3248 39.8501 32.2559 39.8249C32.187 39.7996 32.1136 39.7886 32.0403 39.7926H24.4347C24.2917 39.7926 24.1546 39.8493 24.0533 39.9502C23.9521 40.0512 23.895 40.1882 23.8946 40.3311ZM16.9194 40.8713H20.8359C20.9738 40.8637 21.1036 40.8036 21.1986 40.7033C21.2936 40.603 21.3465 40.4701 21.3465 40.3319C21.3465 40.1938 21.2936 40.0609 21.1986 39.9606C21.1036 39.8603 20.9738 39.8001 20.8359 39.7926H16.9194C16.7815 39.8001 16.6517 39.8603 16.5567 39.9606C16.4617 40.0609 16.4088 40.1938 16.4088 40.3319C16.4088 40.4701 16.4617 40.603 16.5567 40.7033C16.6517 40.8036 16.7815 40.8637 16.9194 40.8713ZM37.0741 37.2708C37.2174 37.2708 37.3548 37.2139 37.4561 37.1126C37.5574 37.0113 37.6143 36.8739 37.6143 36.7307C37.6143 36.5874 37.5574 36.45 37.4561 36.3487C37.3548 36.2475 37.2174 36.1905 37.0741 36.1905H29.8781C29.7348 36.1905 29.5975 36.2475 29.4962 36.3487C29.3949 36.45 29.3379 36.5874 29.3379 36.7307C29.3379 36.8739 29.3949 37.0113 29.4962 37.1126C29.5975 37.2139 29.7348 37.2708 29.8781 37.2708H37.0741ZM26.2712 36.1905H16.9194C16.7762 36.1905 16.6388 36.2475 16.5375 36.3487C16.4362 36.45 16.3793 36.5874 16.3793 36.7307C16.3793 36.8739 16.4362 37.0113 16.5375 37.1126C16.6388 37.2139 16.7762 37.2708 16.9194 37.2708H26.2712C26.4145 37.2708 26.5518 37.2139 26.6531 37.1126C26.7544 37.0113 26.8114 36.8739 26.8114 36.7307C26.8114 36.5874 26.7544 36.45 26.6531 36.3487C26.5518 36.2475 26.4145 36.1905 26.2712 36.1905Z" fill="white"/>
</svg>
