<svg width="30" height="30" viewBox="0 0 30 30" fill="none" xmlns="http://www.w3.org/2000/svg">
<path fill-rule="evenodd" clip-rule="evenodd" d="M11.7863 11.7113H16.4287V14.0238C17.0975 12.6938 18.8125 11.4988 21.3888 11.4988C26.3275 11.4988 27.5 14.1463 27.5 19.0037V28H22.5V20.11C22.5 17.3438 21.8313 15.7838 20.1287 15.7838C17.7675 15.7838 16.7863 17.465 16.7863 20.1087V28H11.7863V11.7113ZM3.2125 27.7875H8.2125V11.4988H3.2125V27.7875ZM8.92875 6.1875C8.92894 6.60659 8.84582 7.02154 8.68423 7.40823C8.52265 7.79492 8.28581 8.14564 7.9875 8.44C7.383 9.04078 6.56476 9.37707 5.7125 9.375C4.86174 9.37443 4.04539 9.039 3.44 8.44125C3.14276 8.14589 2.90673 7.79478 2.74543 7.40804C2.58413 7.0213 2.50072 6.60653 2.5 6.1875C2.5 5.34125 2.8375 4.53125 3.44125 3.93375C4.04611 3.3352 4.8628 2.99963 5.71375 3C6.56625 3 7.38375 3.33625 7.9875 3.93375C8.59 4.53125 8.92875 5.34125 8.92875 6.1875Z" fill="white"/>
</svg>
