<svg width="30" height="30" viewBox="0 0 30 30" fill="none" xmlns="http://www.w3.org/2000/svg">
<path d="M5 25C4.3125 25 3.72375 24.755 3.23375 24.265C2.74375 23.775 2.49917 23.1867 2.5 22.5V7.5C2.5 6.8125 2.745 6.22375 3.235 5.73375C3.725 5.24375 4.31334 4.99917 5 5H25C25.6875 5 26.2763 5.245 26.7663 5.735C27.2563 6.225 27.5008 6.81334 27.5 7.5V22.5C27.5 23.1875 27.255 23.7763 26.765 24.2663C26.275 24.7563 25.6867 25.0008 25 25H5ZM15 16.0313C15.1042 16.0313 15.2138 16.0154 15.3288 15.9838C15.4438 15.9521 15.5529 15.9054 15.6563 15.8438L24.5 10.3125C24.6667 10.2083 24.7917 10.0779 24.875 9.92125C24.9583 9.76459 25 9.59292 25 9.40625C25 8.98959 24.8229 8.67709 24.4688 8.46875C24.1146 8.26042 23.75 8.27084 23.375 8.5L15 13.75L6.625 8.5C6.25 8.27084 5.88542 8.26584 5.53125 8.485C5.17709 8.70417 5 9.01125 5 9.40625C5 9.61459 5.04167 9.79709 5.125 9.95375C5.20834 10.1104 5.33334 10.23 5.5 10.3125L14.3438 15.8438C14.4479 15.9063 14.5575 15.9533 14.6725 15.985C14.7875 16.0167 14.8967 16.0321 15 16.0313Z" fill="white"/>
</svg>
