<svg width="60" height="56" viewBox="0 0 60 56" fill="none" xmlns="http://www.w3.org/2000/svg">
<path d="M10 23.4648H23C23.553 23.4648 24 23.0168 24 22.4648C24 21.9128 23.553 21.4648 23 21.4648H10C9.447 21.4648 9 21.9128 9 22.4648C9 23.0168 9.447 23.4648 10 23.4648Z" fill="black"/>
<path d="M36 27.4648H10C9.447 27.4648 9 27.9128 9 28.4648C9 29.0168 9.447 29.4648 10 29.4648H36C36.553 29.4648 37 29.0168 37 28.4648C37 27.9128 36.553 27.4648 36 27.4648Z" fill="black"/>
<path d="M36 33.4648H10C9.447 33.4648 9 33.9128 9 34.4648C9 35.0168 9.447 35.4648 10 35.4648H36C36.553 35.4648 37 35.0168 37 34.4648C37 33.9128 36.553 33.4648 36 33.4648Z" fill="black"/>
<path d="M54.072 0.534844L19.93 0.464844C16.66 0.464844 14 3.12484 14 6.39484V11.5188L5.93 11.5358C2.66 11.5358 0 14.1958 0 17.4658V38.6068C0 41.8768 2.66 44.5358 5.93 44.5358H12V54.5358C12 54.9488 12.254 55.3198 12.64 55.4688C12.757 55.5138 12.879 55.5358 13 55.5358C13.276 55.5358 13.547 55.4208 13.74 55.2088L23.444 44.5338L40.07 44.4658C43.34 44.4658 46 41.8058 46 38.5368V38.4238L51.26 44.2098C51.453 44.4218 51.724 44.5368 52 44.5368C52.121 44.5368 52.243 44.5148 52.36 44.4698C52.746 44.3208 53 43.9498 53 43.5368V33.5368H54.07C57.34 33.5368 60 30.8768 60 27.6078V6.46484C60 3.19584 57.341 0.535844 54.072 0.534844ZM44 38.5358C44 40.7028 42.237 42.4648 40.066 42.4648L22.996 42.5348C22.716 42.5358 22.448 42.6548 22.26 42.8618L14 51.9488V43.5348C14 42.9828 13.553 42.5348 13 42.5348H5.93C3.763 42.5348 2 40.7718 2 38.6058V17.4648C2 15.2978 3.763 13.5348 5.932 13.5348L15 13.5158H15.002L40.07 13.4638C42.237 13.4638 44 15.2268 44 17.3938V35.8348V38.5358ZM58 27.6058C58 29.7728 56.237 31.5348 54.07 31.5348H52C51.447 31.5348 51 31.9828 51 32.5348V40.9488L46 35.4488V17.3948C46 14.1248 43.34 11.4648 40.068 11.4648L16 11.5138V6.39384C16 4.22684 17.763 2.46384 19.928 2.46384L54.069 2.53384H54.071C56.238 2.53384 58.001 4.29684 58.001 6.46384L58 27.6058Z" fill="black"/>
</svg>
